<svg id="site-logo" xmlns="http://www.w3.org/2000/svg" width="104.493" height="29.489" viewBox="0 0 104.493 29.489">
  <path id="Path_1" data-name="Path 1" d="M16.134,20.953a9.953,9.953,0,0,1-6.757,2.269A9.968,9.968,0,0,1,2.62,20.953,7.576,7.576,0,0,1,0,14.925V0H6.058V14.349q0,2.981,3.319,2.98t3.319-2.98V0h6.062V14.925a7.576,7.576,0,0,1-2.625,6.028" transform="translate(0.01)" fill="#fff"/>
  <path id="Path_2" data-name="Path 2" d="M23.778,3.355a7.3,7.3,0,0,1,5.673,2.557A9.22,9.22,0,0,1,31.737,12.3a9.22,9.22,0,0,1-2.286,6.385,7.3,7.3,0,0,1-5.673,2.557,5.966,5.966,0,0,1-4.809-2.033v8.332H13.347V3.829h5.622V5.387a5.97,5.97,0,0,1,4.809-2.032M19.951,14.971a3.419,3.419,0,0,0,2.574,1.016A3.421,3.421,0,0,0,25.1,14.971a3.691,3.691,0,0,0,.982-2.675A3.691,3.691,0,0,0,25.1,9.62,3.421,3.421,0,0,0,22.525,8.6,3.419,3.419,0,0,0,19.951,9.62a3.686,3.686,0,0,0-.982,2.675,3.686,3.686,0,0,0,.982,2.675" transform="translate(7.725 1.951)" fill="#fff"/>
  <path id="Path_3" data-name="Path 3" d="M40.555,6.936a4.388,4.388,0,0,1,1.9-2.574,5.761,5.761,0,0,1,3.183-.914V9.679a4.854,4.854,0,0,0-3.505.712,3.648,3.648,0,0,0-1.576,3.318v7.384H34.934V3.786h5.621Z" transform="translate(20.21 1.995)" fill="#fff"/>
  <path id="Path_4" data-name="Path 4" d="M48.4,14.366q.845,2.066,3.793,2.066a4.322,4.322,0,0,0,3.083-1.186l4.067,2.845a8.762,8.762,0,0,1-7.282,3.151,9.454,9.454,0,0,1-6.891-2.524,8.532,8.532,0,0,1-2.592-6.385,8.742,8.742,0,0,1,9.006-8.975A8.376,8.376,0,0,1,57.847,5.9a8.767,8.767,0,0,1,2.472,6.366,8.951,8.951,0,0,1-.237,2.1Zm-.068-3.894h6.5A3.007,3.007,0,0,0,51.65,8.1a3.121,3.121,0,0,0-3.319,2.371" transform="translate(24.628 1.948)" fill="#fff"/>
  <path id="Path_5" data-name="Path 5" d="M60.779,14.366q.843,2.066,3.793,2.066a4.318,4.318,0,0,0,3.082-1.185l4.064,2.844a8.762,8.762,0,0,1-7.282,3.151,9.448,9.448,0,0,1-6.889-2.524,8.527,8.527,0,0,1-2.593-6.385,8.742,8.742,0,0,1,9.008-8.975A8.376,8.376,0,0,1,70.227,5.9,8.767,8.767,0,0,1,72.7,12.265a9.037,9.037,0,0,1-.235,2.1Zm-.068-3.894h6.5A3,3,0,0,0,64.03,8.1a3.121,3.121,0,0,0-3.318,2.371" transform="translate(31.79 1.948)" fill="#fff"/>
  <path id="Path_6" data-name="Path 6" d="M37.134,13.43v-.023H35.647c-.33,0-.67.014-1.012.023H33.564c-.093,0-.185-.009-.276-.017-.068-.006-.136-.014-.2-.022a1.568,1.568,0,0,1-.68-.241,1.268,1.268,0,0,1-.521-.963V7.061H26.311v6.415A5.473,5.473,0,0,0,31.721,19h5.732V13.43Z" transform="translate(15.223 4.084)" fill="#fff"/>
  <rect id="Rectangle_1" data-name="Rectangle 1" width="5.571" height="5.571" transform="translate(41.534 0.001)" fill="#fff"/>
  <rect id="Rectangle_2" data-name="Rectangle 2" width="5.571" height="5.571" transform="translate(47.105 5.573)" fill="#fff"/>
</svg>
