<svg id="partner-logo-1" xmlns="http://www.w3.org/2000/svg" width="56.855" height="34.286" viewBox="0 0 56.855 34.286">
  <g id="Group_272" data-name="Group 272" transform="translate(1.002 0)" opacity="0.25">
    <g id="Group_270" data-name="Group 270" transform="translate(0)">
      <path id="Path_985" data-name="Path 985" d="M-106.266-247.073s-7.162,14.551-13.173,14.034-5.6-10.791-11.209-10.275-5.714,9.549-9.591,9.987c0,0-1.964.488-5.257-4.75,0,0-3.944-6.989-7.539-6.757a4.369,4.369,0,0,0-4.058,4.4v.023a23.386,23.386,0,0,0,.921,6.227,21.732,21.732,0,0,0,1.207,3.49,28.38,28.38,0,0,0,3.544,6.125h-.007s8.285,12.72,14.445,5.322l.031-.034.01-.011h0a17.287,17.287,0,0,0,2.325-3.462c3.249-6.157,5.85.949,5.85.949s2.426,7.448,7.148,7.018,12-19.5,12-19.5,2.8-7.62,7.107-5.611C-99.505-238.463-102.264-254.506-106.266-247.073Z" transform="translate(157.092 249.048)" fill="#ffd02f"/>
    </g>
  </g>
  <g id="logo" transform="translate(0 0)">
    <g id="Group_273" data-name="Group 273">
      <path id="Path_993" data-name="Path 993" d="M-109.266-250.073s-7.162,14.551-13.173,14.034-5.6-10.791-11.209-10.275-5.714,9.549-9.591,9.987c0,0-1.964.488-5.257-4.75,0,0-3.944-6.989-7.539-6.757a4.37,4.37,0,0,0-4.059,4.4v.023a23.386,23.386,0,0,0,.921,6.227,21.734,21.734,0,0,0,1.207,3.49,28.381,28.381,0,0,0,3.544,6.125h-.007s8.285,12.72,14.445,5.322l.031-.033.009-.011h0a17.288,17.288,0,0,0,2.325-3.462c3.249-6.157,5.85.949,5.85.949s2.426,7.448,7.148,7.018,12-19.5,12-19.5,2.8-7.62,7.107-5.611C-102.506-241.463-105.265-257.506-109.266-250.073Z" transform="translate(160.093 252.048)" fill="#fff"/>
    </g>
  </g>
</svg>
