<svg xmlns="http://www.w3.org/2000/svg" xmlns:xlink="http://www.w3.org/1999/xlink" width="100" height="100" viewBox="0 0 100 100">
  <defs>
    <clipPath id="clip-path">
      <rect id="Rectangle_26" data-name="Rectangle 26" width="84" height="84.017" fill="#171615"/>
    </clipPath>
  </defs>
  <g id="featured-content-circle" transform="translate(-402 -1077)">
    <g id="Ellipse_1" data-name="Ellipse 1" transform="translate(402 1077)" fill="none" stroke="#4fbce6" stroke-width="1">
      <circle cx="50" cy="50" r="50" stroke="none"/>
      <circle cx="50" cy="50" r="49.5" fill="none"/>
    </g>
    <g id="Ellipse_2" data-name="Ellipse 2" transform="translate(439 1114)" fill="#4fbce6" stroke="#fff" stroke-width="1">
      <circle cx="12.966" cy="12.966" r="12.966" stroke="none"/>
      <circle cx="12.966" cy="12.966" r="12.466" fill="none"/>
    </g>
    <g id="Group_29" data-name="Group 29" transform="translate(410 1085)">
      <text id="_1" data-name="1" transform="translate(16.313 20.121) rotate(-45.425)" fill="#171615" font-size="10" font-family="Helvetica"><tspan x="0" y="0">1</tspan></text>
      <text id="_0" data-name="0" transform="translate(19.548 16.687) rotate(-35.61)" fill="#171615" font-size="10" font-family="Helvetica"><tspan x="0" y="0">0</tspan></text>
      <g id="Group_22" data-name="Group 22">
        <g id="Group_21" data-name="Group 21" clip-path="url(#clip-path)">
          <text id="_" data-name="+" transform="matrix(0.912, -0.409, 0.409, 0.912, 25.145, 12.674)" fill="#171615" font-size="10" font-family="Helvetica"><tspan x="0" y="0">+</tspan></text>
          <text id="_2" data-name=" " transform="translate(31.266 10.072) rotate(-16.166)" fill="#171615" font-size="10" font-family="Helvetica"><tspan x="0" y="0"> </tspan></text>
          <text id="Y" transform="matrix(0.989, -0.146, 0.146, 0.989, 33.67, 9.218)" fill="#171615" font-size="10" font-family="Helvetica"><tspan x="0" y="0">Y</tspan></text>
          <text id="E" transform="translate(40.232 8.269) rotate(2.131)" fill="#171615" font-size="10" font-family="Helvetica"><tspan x="0" y="0">E</tspan></text>
          <text id="A" transform="translate(46.159 8.435) rotate(12.885)" fill="#171615" font-size="10" font-family="Helvetica"><tspan x="0" y="0">A</tspan></text>
          <text id="R" transform="translate(52.748 9.927) rotate(24.415)" fill="#171615" font-size="10" font-family="Helvetica"><tspan x="0" y="0">R</tspan></text>
        </g>
      </g>
      <text id="S" transform="matrix(0.813, 0.583, -0.583, 0.813, 58.881, 12.708)" fill="#171615" font-size="10" font-family="Helvetica"><tspan x="0" y="0">S</tspan></text>
      <text id="_3" data-name=" " transform="translate(64.11 16.609) rotate(43.421)" fill="#171615" font-size="10" font-family="Helvetica"><tspan x="0" y="0"> </tspan></text>
      <text id="_4" data-name=" " transform="matrix(0.669, 0.743, -0.743, 0.669, 66.075, 18.463)" fill="#171615" font-size="10" font-family="Helvetica"><tspan x="0" y="0"> </tspan></text>
      <text id="O" transform="matrix(0.554, 0.833, -0.833, 0.554, 67.995, 20.334)" fill="#171615" font-size="10" font-family="Helvetica"><tspan x="0" y="0">O</tspan></text>
      <g id="Group_24" data-name="Group 24">
        <g id="Group_23" data-name="Group 23" clip-path="url(#clip-path)">
          <text id="F" transform="translate(71.936 26.362) rotate(67.335)" fill="#171615" font-size="10" font-family="Helvetica"><tspan x="0" y="0">F</tspan></text>
          <text id="_5" data-name=" " transform="translate(74.059 31.673) rotate(74.523)" fill="#171615" font-size="10" font-family="Helvetica"><tspan x="0" y="0"> </tspan></text>
          <text id="_6" data-name=" " transform="translate(74.784 34.278) rotate(79.153)" fill="#171615" font-size="10" font-family="Helvetica"><tspan x="0" y="0"> </tspan></text>
          <text id="W" transform="translate(75.567 36.764) rotate(89.07)" fill="#171615" font-size="10" font-family="Helvetica"><tspan x="0" y="0">W</tspan></text>
          <text id="O-2" data-name="O" transform="translate(75.585 46.253) rotate(103.378)" fill="#171615" font-size="10" font-family="Helvetica"><tspan x="0" y="0">O</tspan></text>
          <text id="R-2" data-name="R" transform="translate(73.911 53.259) rotate(115.291)" fill="#171615" font-size="10" font-family="Helvetica"><tspan x="0" y="0">R</tspan></text>
        </g>
      </g>
      <text id="K" transform="translate(71.046 59.348) rotate(126.619)" fill="#171615" font-size="10" font-family="Helvetica"><tspan x="0" y="0">K</tspan></text>
      <text id="I" transform="matrix(-0.702, 0.712, -0.712, -0.702, 66.959, 64.629)" fill="#171615" font-size="10" font-family="Helvetica"><tspan x="0" y="0">I</tspan></text>
      <text id="N" transform="matrix(-0.798, 0.603, -0.603, -0.798, 65.178, 66.681)" fill="#171615" font-size="10" font-family="Helvetica"><tspan x="0" y="0">N</tspan></text>
      <g id="Group_26" data-name="Group 26">
        <g id="Group_25" data-name="Group 25" clip-path="url(#clip-path)">
          <text id="G" transform="translate(59.504 70.988) rotate(154.929)" fill="#171615" font-size="10" font-family="Helvetica"><tspan x="0" y="0">G</tspan></text>
          <text id="_7" data-name=" " transform="translate(53.034 73.849) rotate(163.255)" fill="#171615" font-size="10" font-family="Helvetica"><tspan x="0" y="0"> </tspan></text>
          <text id="_8" data-name=" " transform="translate(50.44 74.633) rotate(167.897)" fill="#171615" font-size="10" font-family="Helvetica"><tspan x="0" y="0"> </tspan></text>
          <text id="E-2" data-name="E" transform="translate(47.842 75.304) rotate(175.241)" fill="#171615" font-size="10" font-family="Helvetica"><tspan x="0" y="0">E</tspan></text>
          <text id="X" transform="matrix(-0.995, -0.104, 0.104, -0.995, 41.929, 75.853)" fill="#171615" font-size="10" font-family="Helvetica"><tspan x="0" y="0">X</tspan></text>
          <text id="P" transform="translate(35.125 75.137) rotate(-162.722)" fill="#171615" font-size="10" font-family="Helvetica"><tspan x="0" y="0">P</tspan></text>
        </g>
      </g>
      <text id="E-3" data-name="E" transform="translate(28.989 73.217) rotate(-152.182)" fill="#171615" font-size="10" font-family="Helvetica"><tspan x="0" y="0">E</tspan></text>
      <text id="R-3" data-name="R" transform="translate(23.729 70.502) rotate(-141.452)" fill="#171615" font-size="10" font-family="Helvetica"><tspan x="0" y="0">R</tspan></text>
      <text id="I-2" data-name="I" transform="translate(18.511 66.173) rotate(-133.421)" fill="#171615" font-size="10" font-family="Helvetica"><tspan x="0" y="0">I</tspan></text>
      <text id="E-4" data-name="E" transform="matrix(-0.589, -0.808, 0.808, -0.589, 16.559, 64.27)" fill="#171615" font-size="10" font-family="Helvetica"><tspan x="0" y="0">E</tspan></text>
      <g id="Group_28" data-name="Group 28">
        <g id="Group_27" data-name="Group 27" clip-path="url(#clip-path)">
          <text id="N-2" data-name="N" transform="matrix(-0.423, -0.906, 0.906, -0.423, 13.013, 59.53)" fill="#171615" font-size="10" font-family="Helvetica"><tspan x="0" y="0">N</tspan></text>
          <text id="C" transform="matrix(-0.226, -0.974, 0.974, -0.226, 9.998, 53.071)" fill="#171615" font-size="10" font-family="Helvetica"><tspan x="0" y="0">C</tspan></text>
          <text id="E-5" data-name="E" transform="matrix(-0.039, -0.999, 0.999, -0.039, 8.477, 46.375)" fill="#171615" font-size="10" font-family="Helvetica"><tspan x="0" y="0">E</tspan></text>
          <text id="_9" data-name=" " transform="translate(8.341 40.426) rotate(-84.991)" fill="#171615" font-size="10" font-family="Helvetica"><tspan x="0" y="0"> </tspan></text>
          <text id="_10" data-name=" " transform="translate(8.575 37.728) rotate(-80.39)" fill="#171615" font-size="10" font-family="Helvetica"><tspan x="0" y="0"> </tspan></text>
          <text id="_11" data-name=" " transform="matrix(0.246, -0.969, 0.969, 0.246, 9.024, 35.054)" fill="#171615" font-size="10" font-family="Helvetica"><tspan x="0" y="0"> </tspan></text>
          <text id="_12" data-name="&gt;" transform="translate(9.541 32.426) rotate(-67.776)" fill="#171615" font-size="10" font-family="Helvetica"><tspan x="0" y="0">&gt;</tspan></text>
        </g>
      </g>
    </g>
  </g>
</svg>
