<svg xmlns="http://www.w3.org/2000/svg" width="159.781" height="159.78" viewBox="0 0 159.781 159.78">
  <g id="Group_84" data-name="Group 84" transform="translate(-336.588 -11470.39)">
    <path id="Path_155" data-name="Path 155" d="M51.33,98.748c0-17.906,13.293-31.2,31.2-31.2A31.217,31.217,0,0,1,101.14,73.3v.38a6.165,6.165,0,0,1,6.349-6.24,6.081,6.081,0,0,1,6.132,6.24V123a6.114,6.114,0,0,1-6.132,6.24A6.2,6.2,0,0,1,101.14,123v.7a29.825,29.825,0,0,1-18.611,6.132c-17.906,0-31.2-13.294-31.2-31.091m31.2,18.991c11.286,0,18.611-7.542,18.611-18.991,0-11.612-7.325-19.154-18.611-19.154-11.178,0-18.72,7.542-18.72,19.154,0,11.448,7.542,18.991,18.72,18.991" transform="translate(321.306 11450.312)" fill="#4fbce6"/>
    <path id="Path_156" data-name="Path 156" d="M51.33,138.149a5.826,5.826,0,0,1,5.914-5.915h66.633c1.085,0,1.085,0,1.085-2.985V65.874a6.295,6.295,0,0,1,12.589,0v63.375c0,8.736-3.636,14.814-11.883,14.814H57.244a5.826,5.826,0,0,1-5.914-5.915m79.873-99.3a7.645,7.645,0,0,1,7.814,7.868,7.9,7.9,0,1,1-15.79,0,7.713,7.713,0,0,1,7.976-7.868" transform="translate(321.306 11458.822)" fill="#4fbce6"/>
    <path id="Path_157" data-name="Path 157" d="M124.829,159.78H34.952A34.991,34.991,0,0,1,0,124.829V34.952A34.991,34.991,0,0,1,34.952,0h89.877a34.991,34.991,0,0,1,34.952,34.952v89.877a34.991,34.991,0,0,1-34.952,34.952M34.952,10.894A24.085,24.085,0,0,0,10.894,34.952v89.877a24.085,24.085,0,0,0,24.058,24.058h89.877a24.085,24.085,0,0,0,24.058-24.058V34.952a24.085,24.085,0,0,0-24.058-24.058Z" transform="translate(336.588 11470.39)" fill="#4fbce6"/>
  </g>
</svg>
