<svg width="512" height="512" viewBox="0 0 512 512" fill="none" xmlns="http://www.w3.org/2000/svg">
<rect width="512" height="512" fill="white"/>
<path d="M170.889 253.524C170.889 218.808 196.661 193.034 231.379 193.034C244.288 192.808 256.93 196.716 267.46 204.186V204.923C267.439 203.31 267.745 201.711 268.36 200.22C268.974 198.729 269.883 197.378 271.033 196.247C272.183 195.117 273.55 194.231 275.051 193.643C276.553 193.055 278.157 192.776 279.769 192.825C281.352 192.811 282.921 193.116 284.384 193.722C285.846 194.327 287.172 195.221 288.281 196.35C289.39 197.479 290.261 198.82 290.841 200.293C291.421 201.766 291.699 203.34 291.658 204.923V300.543C291.69 302.123 291.406 303.694 290.823 305.163C290.24 306.631 289.369 307.969 288.261 309.096C287.153 310.223 285.832 311.117 284.373 311.726C282.915 312.335 281.349 312.646 279.769 312.641C278.16 312.68 276.559 312.395 275.062 311.803C273.565 311.212 272.202 310.326 271.054 309.197C269.906 308.069 268.996 306.721 268.379 305.235C267.761 303.748 267.449 302.153 267.46 300.543V301.9C257.114 309.814 244.4 314.003 231.377 313.789C196.661 313.789 170.887 288.015 170.887 253.51M231.377 290.33C253.258 290.33 267.46 275.707 267.46 253.51C267.46 230.997 253.258 216.375 231.377 216.375C209.705 216.375 195.083 230.997 195.083 253.51C195.083 275.706 209.705 290.33 231.377 290.33Z" fill="#4FBCE6"/>
<path d="M170.889 346.412C170.866 344.9 171.146 343.398 171.714 341.997C172.282 340.595 173.126 339.322 174.195 338.252C175.265 337.183 176.538 336.339 177.94 335.77C179.341 335.202 180.843 334.921 182.355 334.944H311.542C313.645 334.944 313.645 334.944 313.645 329.157V206.287C313.686 203.077 314.989 200.012 317.273 197.757C319.558 195.501 322.639 194.236 325.849 194.236C329.059 194.236 332.14 195.501 334.424 197.757C336.708 200.012 338.012 203.077 338.052 206.287V329.157C338.052 346.094 331.003 357.878 315.014 357.878H182.355C180.843 357.901 179.341 357.62 177.94 357.052C176.538 356.484 175.265 355.64 174.195 354.571C173.126 353.501 172.282 352.228 171.714 350.826C171.146 349.424 170.866 347.923 170.889 346.41M325.745 153.89C327.756 153.844 329.755 154.209 331.62 154.961C333.486 155.712 335.179 156.836 336.596 158.263C338.013 159.69 339.125 161.391 339.864 163.261C340.603 165.132 340.954 167.133 340.895 169.144C340.968 171.2 340.626 173.249 339.89 175.17C339.154 177.091 338.038 178.844 336.609 180.325C335.181 181.805 333.469 182.982 331.575 183.786C329.681 184.591 327.645 185.005 325.588 185.005C323.531 185.005 321.495 184.591 319.601 183.786C317.708 182.982 315.995 181.805 314.567 180.325C313.138 178.844 312.023 177.091 311.286 175.17C310.55 173.249 310.208 171.2 310.281 169.144C310.239 167.111 310.612 165.092 311.377 163.208C312.142 161.324 313.283 159.617 314.73 158.189C316.178 156.761 317.901 155.643 319.795 154.904C321.689 154.165 323.713 153.82 325.745 153.89Z" fill="#4FBCE6"/>
<path d="M343.016 410.778H168.764C150.798 410.758 133.574 403.612 120.87 390.909C108.167 378.205 101.021 360.982 101 343.016L101 168.764C101.02 150.798 108.166 133.574 120.87 120.87C133.574 108.166 150.798 101.02 168.764 101H343.016C360.982 101.02 378.206 108.166 390.91 120.87C403.614 133.574 410.76 150.798 410.78 168.764V343.016C410.76 360.982 403.614 378.206 390.91 390.91C378.206 403.614 360.982 410.76 343.016 410.78M168.764 122.121C156.398 122.135 144.542 127.054 135.798 135.798C127.054 144.542 122.135 156.398 122.121 168.764V343.016C122.135 355.382 127.054 367.238 135.798 375.982C144.542 384.726 156.398 389.645 168.764 389.659H343.016C355.382 389.645 367.238 384.726 375.982 375.982C384.726 367.238 389.645 355.382 389.659 343.016V168.764C389.645 156.398 384.726 144.542 375.982 135.798C367.238 127.054 355.382 122.135 343.016 122.121H168.764Z" fill="#4FBCE6"/>
</svg>
