<svg xmlns="http://www.w3.org/2000/svg" width="139.752" height="49" viewBox="0 0 139.752 49">
  <g id="Group_193" data-name="Group 193" transform="translate(-120.552 -32)">
    <path id="Path_155" data-name="Path 155" d="M51.33,77.041A9.315,9.315,0,0,1,60.9,67.473a9.573,9.573,0,0,1,5.707,1.764v.117a1.891,1.891,0,0,1,1.947-1.914,1.865,1.865,0,0,1,1.88,1.914V84.479a1.875,1.875,0,0,1-1.88,1.914,1.9,1.9,0,0,1-1.947-1.914V84.7A9.146,9.146,0,0,1,60.9,86.576a9.307,9.307,0,0,1-9.568-9.535M60.9,82.865c3.461,0,5.707-2.313,5.707-5.824,0-3.561-2.246-5.874-5.707-5.874a5.477,5.477,0,0,0-5.741,5.874A5.463,5.463,0,0,0,60.9,82.865" transform="translate(80.277 -20.916)" fill="#4fbce6"/>
    <g id="Group_88" data-name="Group 88">
      <g id="Group_86" data-name="Group 86" transform="translate(0 0.425)">
        <path id="Path_150" data-name="Path 150" d="M248.252,104.348V91.862a1.567,1.567,0,0,1,1.6-1.6,1.54,1.54,0,0,1,1.533,1.059,7.23,7.23,0,0,1,4.111-1.24,8.429,8.429,0,0,1,3.721.836,6.944,6.944,0,0,1,3.609,6.535v6.9a1.6,1.6,0,0,1-3.205,0v-6.9c0-2.9-1.477-4.166-4.125-4.166-2.564,0-4.041,1.352-4.041,3.219v7.845a1.559,1.559,0,0,1-1.6,1.6,1.612,1.612,0,0,1-1.6-1.6" transform="translate(-65.831 -38.679)" fill="#fff"/>
        <path id="Path_151" data-name="Path 151" d="M323.053,98.22a8,8,0,1,1,8.012,7.984,7.792,7.792,0,0,1-8.012-7.984m8.012,4.877a4.9,4.9,0,1,0-4.807-4.877,4.547,4.547,0,0,0,4.807,4.877" transform="translate(-125.053 -38.78)" fill="#fff"/>
        <path id="Path_152" data-name="Path 152" d="M399.86,76.87a7.792,7.792,0,0,1,8.012-8.012,8.176,8.176,0,0,1,4.779,1.477v-5.7a1.544,1.544,0,0,1,1.6-1.6,1.567,1.567,0,0,1,1.6,1.6V83.1a1.6,1.6,0,1,1-3.2,0v.306a8.3,8.3,0,0,1-4.779,1.477,7.792,7.792,0,0,1-8.012-8.012m8.012,4.877a4.884,4.884,0,1,0-3.748-8.068,4.949,4.949,0,0,0-1.059,3.191,4.568,4.568,0,0,0,4.807,4.877" transform="translate(-184.86 -17.458)" fill="#fff"/>
        <path id="Path_153" data-name="Path 153" d="M481.261,98.321c0-4.64,3.052-7.984,7.413-7.984,4.292,0,7.3,3.2,7.3,7.72a1.535,1.535,0,0,1-1.575,1.561h-9.8a4.2,4.2,0,0,0,4.459,3.553,4.709,4.709,0,0,0,3.038-1.017,1.579,1.579,0,0,1,2.1-.1,1.466,1.466,0,0,1,.084,2.285,8.417,8.417,0,0,1-5.225,1.937,7.563,7.563,0,0,1-7.8-7.957m11.426-1.714a3.783,3.783,0,0,0-4.013-3.177,3.9,3.9,0,0,0-4,3.177Z" transform="translate(-249.261 -38.881)" fill="#fff"/>
        <path id="Path_154" data-name="Path 154" d="M552.285,103.78a1.49,1.49,0,0,1,.321-2.257,1.552,1.552,0,0,1,2.132.293,4.229,4.229,0,0,0,3.483,1.254c2.508,0,3.121-.669,3.121-1.728,0-.892-.724-1.407-3.2-1.756-3.776-.543-5.741-2.3-5.741-4.6,0-3.01,2.425-4.779,5.783-4.779a6.456,6.456,0,0,1,5.56,2.634A1.47,1.47,0,0,1,563.2,95.1a1.621,1.621,0,0,1-2.048-.432,3.35,3.35,0,0,0-3.024-1.365c-1.839,0-2.578.613-2.578,1.533,0,.948.627,1.38,3.135,1.728a10.509,10.509,0,0,1,3.33.975,4.276,4.276,0,0,1,2.48,3.888c0,2.884-2.857,4.779-6.34,4.779a7.759,7.759,0,0,1-5.866-2.425" transform="translate(-304.187 -38.78)" fill="#fff"/>
      </g>
      <g id="Group_87" data-name="Group 87">
        <path id="Path_156" data-name="Path 156" d="M51.33,69.3a1.787,1.787,0,0,1,1.814-1.814H73.578c.333,0,.333,0,.333-.915V47.139a1.93,1.93,0,0,1,3.861,0V66.574c0,2.679-1.115,4.543-3.644,4.543H53.144A1.787,1.787,0,0,1,51.33,69.3M75.825,38.852a2.344,2.344,0,0,1,2.4,2.413,2.421,2.421,0,1,1-4.842,0,2.365,2.365,0,0,1,2.446-2.413" transform="translate(80.277 1.515)" fill="#4fbce6"/>
        <path id="Path_157" data-name="Path 157" d="M38.282,49H10.719A10.731,10.731,0,0,1,0,38.281V10.719A10.731,10.731,0,0,1,10.719,0H38.282A10.731,10.731,0,0,1,49,10.719V38.281A10.731,10.731,0,0,1,38.282,49M10.719,3.341a7.386,7.386,0,0,0-7.378,7.378V38.281a7.386,7.386,0,0,0,7.378,7.378H38.282a7.386,7.386,0,0,0,7.378-7.378V10.719a7.386,7.386,0,0,0-7.378-7.378Z" transform="translate(120.552 32)" fill="#4fbce6"/>
      </g>
    </g>
  </g>
</svg>
